<mxfile host="app.diagrams.net" modified="2022-08-17T09:40:49.264Z" agent="5.0 (Macintosh; Intel Mac OS X 10_15_7) AppleWebKit/537.36 (KHTML, like Gecko) Chrome/104.0.0.0 Safari/537.36" etag="fq5-1bJOK6pHBPG0Btjs" version="20.2.1" type="github">
  <diagram id="_nFbhZWRcSeFeAbyIk7h" name="第 1 页">
    <mxGraphModel dx="1141" dy="634" grid="1" gridSize="10" guides="1" tooltips="1" connect="1" arrows="1" fold="1" page="1" pageScale="1" pageWidth="827" pageHeight="1169" math="0" shadow="0">
      <root>
        <mxCell id="0" />
        <mxCell id="1" parent="0" />
        <mxCell id="wHOBIohsaAARMyjnAL8D-20" value="" style="rounded=1;whiteSpace=wrap;html=1;sketch=1;hachureGap=4;fontFamily=Architects Daughter;fontSource=https%3A%2F%2Ffonts.googleapis.com%2Fcss%3Ffamily%3DArchitects%2BDaughter;fontSize=20;dashed=1;" vertex="1" parent="1">
          <mxGeometry x="150" y="165" width="350" height="70" as="geometry" />
        </mxCell>
        <mxCell id="wHOBIohsaAARMyjnAL8D-19" value="" style="rounded=1;whiteSpace=wrap;html=1;sketch=1;hachureGap=4;fontFamily=Architects Daughter;fontSource=https%3A%2F%2Ffonts.googleapis.com%2Fcss%3Ffamily%3DArchitects%2BDaughter;fontSize=20;dashed=1;" vertex="1" parent="1">
          <mxGeometry x="310" y="444" width="190" height="60" as="geometry" />
        </mxCell>
        <mxCell id="wHOBIohsaAARMyjnAL8D-18" value="" style="rounded=1;whiteSpace=wrap;html=1;sketch=1;hachureGap=4;fontFamily=Architects Daughter;fontSource=https%3A%2F%2Ffonts.googleapis.com%2Fcss%3Ffamily%3DArchitects%2BDaughter;fontSize=20;dashed=1;" vertex="1" parent="1">
          <mxGeometry x="160" y="444" width="130" height="60" as="geometry" />
        </mxCell>
        <mxCell id="wHOBIohsaAARMyjnAL8D-1" value="1" style="ellipse;whiteSpace=wrap;html=1;aspect=fixed;strokeWidth=4;sketch=1;fillColor=#dae8fc;strokeColor=#6c8ebf;" vertex="1" parent="1">
          <mxGeometry x="180" y="180" width="40" height="40" as="geometry" />
        </mxCell>
        <mxCell id="wHOBIohsaAARMyjnAL8D-8" value="2" style="ellipse;whiteSpace=wrap;html=1;aspect=fixed;strokeWidth=4;sketch=1;fillColor=#dae8fc;strokeColor=#6c8ebf;" vertex="1" parent="1">
          <mxGeometry x="240" y="180" width="40" height="40" as="geometry" />
        </mxCell>
        <mxCell id="wHOBIohsaAARMyjnAL8D-9" value="3" style="ellipse;whiteSpace=wrap;html=1;aspect=fixed;strokeWidth=4;sketch=1;fillColor=#dae8fc;strokeColor=#6c8ebf;" vertex="1" parent="1">
          <mxGeometry x="300" y="180" width="40" height="40" as="geometry" />
        </mxCell>
        <mxCell id="wHOBIohsaAARMyjnAL8D-10" value="4" style="ellipse;whiteSpace=wrap;html=1;aspect=fixed;strokeWidth=4;sketch=1;fillColor=#dae8fc;strokeColor=#6c8ebf;" vertex="1" parent="1">
          <mxGeometry x="360" y="180" width="40" height="40" as="geometry" />
        </mxCell>
        <mxCell id="wHOBIohsaAARMyjnAL8D-11" value="5" style="ellipse;whiteSpace=wrap;html=1;aspect=fixed;strokeWidth=4;sketch=1;fillColor=#dae8fc;strokeColor=#6c8ebf;" vertex="1" parent="1">
          <mxGeometry x="420" y="180" width="40" height="40" as="geometry" />
        </mxCell>
        <mxCell id="wHOBIohsaAARMyjnAL8D-12" value="1" style="ellipse;whiteSpace=wrap;html=1;aspect=fixed;strokeWidth=4;sketch=1;fillColor=#dae8fc;strokeColor=#6c8ebf;" vertex="1" parent="1">
          <mxGeometry x="180" y="454" width="40" height="40" as="geometry" />
        </mxCell>
        <mxCell id="wHOBIohsaAARMyjnAL8D-13" value="2" style="ellipse;whiteSpace=wrap;html=1;aspect=fixed;strokeWidth=4;sketch=1;fillColor=#dae8fc;strokeColor=#6c8ebf;" vertex="1" parent="1">
          <mxGeometry x="240" y="454" width="40" height="40" as="geometry" />
        </mxCell>
        <mxCell id="wHOBIohsaAARMyjnAL8D-14" value="3" style="ellipse;whiteSpace=wrap;html=1;aspect=fixed;strokeWidth=4;sketch=1;fillColor=#fff2cc;strokeColor=#d6b656;" vertex="1" parent="1">
          <mxGeometry x="328" y="456" width="40" height="40" as="geometry" />
        </mxCell>
        <mxCell id="wHOBIohsaAARMyjnAL8D-15" value="4" style="ellipse;whiteSpace=wrap;html=1;aspect=fixed;strokeWidth=4;sketch=1;fillColor=#fff2cc;strokeColor=#d6b656;" vertex="1" parent="1">
          <mxGeometry x="388" y="456" width="40" height="40" as="geometry" />
        </mxCell>
        <mxCell id="wHOBIohsaAARMyjnAL8D-16" value="5" style="ellipse;whiteSpace=wrap;html=1;aspect=fixed;strokeWidth=4;sketch=1;fillColor=#fff2cc;strokeColor=#d6b656;" vertex="1" parent="1">
          <mxGeometry x="448" y="456" width="40" height="40" as="geometry" />
        </mxCell>
        <mxCell id="wHOBIohsaAARMyjnAL8D-17" value="" style="endArrow=none;html=1;rounded=0;sketch=1;hachureGap=4;fontFamily=Architects Daughter;fontSource=https%3A%2F%2Ffonts.googleapis.com%2Fcss%3Ffamily%3DArchitects%2BDaughter;fontSize=16;startSize=14;endSize=14;sourcePerimeterSpacing=8;targetPerimeterSpacing=8;curved=1;" edge="1" parent="1">
          <mxGeometry width="50" height="50" relative="1" as="geometry">
            <mxPoint x="300" y="394" as="sourcePoint" />
            <mxPoint x="300" y="544" as="targetPoint" />
            <Array as="points">
              <mxPoint x="300" y="474" />
            </Array>
          </mxGeometry>
        </mxCell>
        <mxCell id="wHOBIohsaAARMyjnAL8D-21" value="" style="endArrow=classic;html=1;rounded=0;sketch=1;hachureGap=4;fontFamily=Architects Daughter;fontSource=https%3A%2F%2Ffonts.googleapis.com%2Fcss%3Ffamily%3DArchitects%2BDaughter;fontSize=16;startSize=14;endSize=14;sourcePerimeterSpacing=8;targetPerimeterSpacing=8;curved=1;" edge="1" parent="1">
          <mxGeometry width="50" height="50" relative="1" as="geometry">
            <mxPoint x="185" y="404" as="sourcePoint" />
            <mxPoint x="215" y="434" as="targetPoint" />
            <Array as="points">
              <mxPoint x="215" y="404" />
            </Array>
          </mxGeometry>
        </mxCell>
        <mxCell id="wHOBIohsaAARMyjnAL8D-24" value="&lt;font style=&quot;font-size: 14px;&quot;&gt;cluster 1&lt;/font&gt;" style="text;html=1;align=center;verticalAlign=middle;resizable=0;points=[];autosize=1;strokeColor=none;fillColor=none;fontSize=20;fontFamily=Architects Daughter;" vertex="1" parent="1">
          <mxGeometry x="110" y="374" width="80" height="40" as="geometry" />
        </mxCell>
        <mxCell id="wHOBIohsaAARMyjnAL8D-25" value="" style="endArrow=classic;html=1;rounded=0;sketch=1;hachureGap=4;fontFamily=Architects Daughter;fontSource=https%3A%2F%2Ffonts.googleapis.com%2Fcss%3Ffamily%3DArchitects%2BDaughter;fontSize=14;startSize=14;endSize=14;sourcePerimeterSpacing=8;targetPerimeterSpacing=8;curved=1;" edge="1" parent="1">
          <mxGeometry width="50" height="50" relative="1" as="geometry">
            <mxPoint x="428" y="404" as="sourcePoint" />
            <mxPoint x="388" y="434" as="targetPoint" />
            <Array as="points">
              <mxPoint x="398" y="404" />
            </Array>
          </mxGeometry>
        </mxCell>
        <mxCell id="wHOBIohsaAARMyjnAL8D-26" value="&lt;font style=&quot;font-size: 14px;&quot;&gt;cluster 2&lt;/font&gt;" style="text;html=1;align=center;verticalAlign=middle;resizable=0;points=[];autosize=1;strokeColor=none;fillColor=none;fontSize=20;fontFamily=Architects Daughter;" vertex="1" parent="1">
          <mxGeometry x="428" y="374" width="80" height="40" as="geometry" />
        </mxCell>
        <mxCell id="wHOBIohsaAARMyjnAL8D-27" value="" style="endArrow=classic;html=1;rounded=0;sketch=1;hachureGap=4;fontFamily=Architects Daughter;fontSource=https%3A%2F%2Ffonts.googleapis.com%2Fcss%3Ffamily%3DArchitects%2BDaughter;fontSize=16;startSize=14;endSize=14;sourcePerimeterSpacing=8;targetPerimeterSpacing=8;curved=1;" edge="1" parent="1">
          <mxGeometry width="50" height="50" relative="1" as="geometry">
            <mxPoint x="250" y="110" as="sourcePoint" />
            <mxPoint x="210" y="160" as="targetPoint" />
            <Array as="points">
              <mxPoint x="210" y="130" />
            </Array>
          </mxGeometry>
        </mxCell>
        <mxCell id="wHOBIohsaAARMyjnAL8D-28" value="&lt;font style=&quot;font-size: 14px;&quot;&gt;cluster&lt;/font&gt;" style="text;html=1;align=center;verticalAlign=middle;resizable=0;points=[];autosize=1;strokeColor=none;fillColor=none;fontSize=20;fontFamily=Architects Daughter;" vertex="1" parent="1">
          <mxGeometry x="253" y="80" width="70" height="40" as="geometry" />
        </mxCell>
        <mxCell id="wHOBIohsaAARMyjnAL8D-29" value="&lt;font style=&quot;font-size: 12px;&quot;&gt;由于网络问题导致1、2节点和3、4、5号节点之间网络断开。这个时候会互相认为对方已尽离线，导致脑裂。&lt;/font&gt;" style="text;html=1;strokeColor=none;fillColor=none;align=center;verticalAlign=middle;whiteSpace=wrap;rounded=0;dashed=1;sketch=1;hachureGap=4;fontFamily=Architects Daughter;fontSource=https%3A%2F%2Ffonts.googleapis.com%2Fcss%3Ffamily%3DArchitects%2BDaughter;fontSize=14;" vertex="1" parent="1">
          <mxGeometry x="40" y="280" width="320" height="50" as="geometry" />
        </mxCell>
      </root>
    </mxGraphModel>
  </diagram>
</mxfile>
